# xmcd
#
# Track frame offsets: 
#        150
#        19491
#        40021
#        65743
#        85689
#        110280
#        130001
#        150194
#        165784
#        186668
#        215685
#        236661
#        254267
#        271714
#        296431
#
# Disc length: 4304 seconds
#
# Revision: 0
# Processed by: cddbd v1.5.2PL0 Copyright (c) Steve Scherf et al.
# Submitted via: ExactAudioCopy v1.1
#
DISCID=c610ce0f
DTITLE=Jan Luley - Blues Gumbo - Down in Pianorleans
DYEAR=2013
DGENRE=Blues
TTITLE0=Buddy Bolden Blues
TTITLE1=Muffuletta Shuffle
TTITLE2=St. Louis Blues
TTITLE3=Rabbit Stew Boogie Woogie
TTITLE4=Keep on Gwine
TTITLE5=Jay Al's Boogie
TTITLE6=Creole Tears
TTITLE7=Olivia's Oyster Dance
TTITLE8=Larry's Groove
TTITLE9=Dorothy
TTITLE10=Hurricane Boogie Woogie
TTITLE11=Winin Boy Blues
TTITLE12=Mississippi Lady
TTITLE13=Pixie
TTITLE14=Creole Love Call
EXTD=
EXTT0=
EXTT1=
EXTT2=
EXTT3=
EXTT4=
EXTT5=
EXTT6=
EXTT7=
EXTT8=
EXTT9=
EXTT10=
EXTT11=
EXTT12=
EXTT13=
EXTT14=
PLAYORDER=
